%TF.GenerationSoftware,KiCad,Pcbnew,(6.0.11)*%
%TF.CreationDate,2023-09-04T13:57:39-04:00*%
%TF.ProjectId,BlinkyProject,426c696e-6b79-4507-926f-6a6563742e6b,rev?*%
%TF.SameCoordinates,Original*%
%TF.FileFunction,Copper,L1,Top*%
%TF.FilePolarity,Positive*%
%FSLAX46Y46*%
G04 Gerber Fmt 4.6, Leading zero omitted, Abs format (unit mm)*
G04 Created by KiCad (PCBNEW (6.0.11)) date 2023-09-04 13:57:39*
%MOMM*%
%LPD*%
G01*
G04 APERTURE LIST*
G04 Aperture macros list*
%AMRoundRect*
0 Rectangle with rounded corners*
0 $1 Rounding radius*
0 $2 $3 $4 $5 $6 $7 $8 $9 X,Y pos of 4 corners*
0 Add a 4 corners polygon primitive as box body*
4,1,4,$2,$3,$4,$5,$6,$7,$8,$9,$2,$3,0*
0 Add four circle primitives for the rounded corners*
1,1,$1+$1,$2,$3*
1,1,$1+$1,$4,$5*
1,1,$1+$1,$6,$7*
1,1,$1+$1,$8,$9*
0 Add four rect primitives between the rounded corners*
20,1,$1+$1,$2,$3,$4,$5,0*
20,1,$1+$1,$4,$5,$6,$7,0*
20,1,$1+$1,$6,$7,$8,$9,0*
20,1,$1+$1,$8,$9,$2,$3,0*%
G04 Aperture macros list end*
%TA.AperFunction,SMDPad,CuDef*%
%ADD10RoundRect,0.250000X0.450000X-0.325000X0.450000X0.325000X-0.450000X0.325000X-0.450000X-0.325000X0*%
%TD*%
%TA.AperFunction,SMDPad,CuDef*%
%ADD11RoundRect,0.250000X-0.450000X0.350000X-0.450000X-0.350000X0.450000X-0.350000X0.450000X0.350000X0*%
%TD*%
%TA.AperFunction,SMDPad,CuDef*%
%ADD12RoundRect,0.250000X0.475000X-0.337500X0.475000X0.337500X-0.475000X0.337500X-0.475000X-0.337500X0*%
%TD*%
%TA.AperFunction,SMDPad,CuDef*%
%ADD13RoundRect,0.150000X-0.825000X-0.150000X0.825000X-0.150000X0.825000X0.150000X-0.825000X0.150000X0*%
%TD*%
%TA.AperFunction,ViaPad*%
%ADD14C,0.800000*%
%TD*%
%TA.AperFunction,Conductor*%
%ADD15C,0.250000*%
%TD*%
G04 APERTURE END LIST*
D10*
%TO.P,D1,1,K*%
%TO.N,GND*%
X159525000Y-126980000D03*
%TO.P,D1,2,A*%
%TO.N,Net-(D1-Pad2)*%
X159525000Y-124930000D03*
%TD*%
D11*
%TO.P,R3,1*%
%TO.N,Net-(R3-Pad1)*%
X159525000Y-120855000D03*
%TO.P,R3,2*%
%TO.N,Net-(D1-Pad2)*%
X159525000Y-122855000D03*
%TD*%
D12*
%TO.P,C1,1*%
%TO.N,/THR*%
X159525000Y-118780000D03*
%TO.P,C1,2*%
%TO.N,GND*%
X159525000Y-116705000D03*
%TD*%
D13*
%TO.P,U1,1,GND*%
%TO.N,GND*%
X163800000Y-119150000D03*
%TO.P,U1,2,~{TRIG}*%
%TO.N,/THR*%
X163800000Y-120420000D03*
%TO.P,U1,3,OUT*%
%TO.N,Net-(R3-Pad1)*%
X163800000Y-121690000D03*
%TO.P,U1,4,~{RST}*%
%TO.N,/VDD*%
X163800000Y-122960000D03*
%TO.P,U1,5,CTRL*%
%TO.N,unconnected-(U1-Pad5)*%
X168750000Y-122960000D03*
%TO.P,U1,6,THR*%
%TO.N,/THR*%
X168750000Y-121690000D03*
%TO.P,U1,7,DIS*%
%TO.N,/DIS*%
X168750000Y-120420000D03*
%TO.P,U1,8,VDD*%
%TO.N,/VDD*%
X168750000Y-119150000D03*
%TD*%
D11*
%TO.P,R2,1*%
%TO.N,/DIS*%
X172825000Y-122205000D03*
%TO.P,R2,2*%
%TO.N,/THR*%
X172825000Y-124205000D03*
%TD*%
%TO.P,R1,1*%
%TO.N,/VDD*%
X172825000Y-118155000D03*
%TO.P,R1,2*%
%TO.N,/DIS*%
X172825000Y-120155000D03*
%TD*%
D14*
%TO.N,/VDD*%
X153525000Y-115155000D03*
X178975000Y-115555000D03*
%TO.N,GND*%
X159525000Y-128955000D03*
X163775000Y-116805000D03*
X159525000Y-114405000D03*
%TD*%
D15*
%TO.N,/VDD*%
X169126751Y-119150000D02*
X170121751Y-118155000D01*
X170121751Y-118155000D02*
X172825000Y-118155000D01*
X168750000Y-119150000D02*
X169126751Y-119150000D01*
%TO.N,GND*%
X163800000Y-116830000D02*
X163775000Y-116805000D01*
X159525000Y-126980000D02*
X159525000Y-128955000D01*
X159525000Y-116705000D02*
X159525000Y-114405000D01*
X163800000Y-119150000D02*
X163800000Y-116830000D01*
%TO.N,/THR*%
X161875000Y-119855000D02*
X161875000Y-120455000D01*
X165490000Y-120420000D02*
X166760000Y-121690000D01*
X161875000Y-120455000D02*
X163765000Y-120455000D01*
X172575000Y-124455000D02*
X172825000Y-124205000D01*
X163765000Y-120455000D02*
X163800000Y-120420000D01*
X160800000Y-118780000D02*
X161875000Y-119855000D01*
X171025000Y-122405000D02*
X171025000Y-124455000D01*
X170240000Y-121690000D02*
X170275000Y-121655000D01*
X171025000Y-124455000D02*
X172575000Y-124455000D01*
X168750000Y-121690000D02*
X170240000Y-121690000D01*
X170275000Y-121655000D02*
X171025000Y-122405000D01*
X163800000Y-120420000D02*
X165490000Y-120420000D01*
X159525000Y-118780000D02*
X160800000Y-118780000D01*
X166760000Y-121690000D02*
X168750000Y-121690000D01*
%TO.N,Net-(D1-Pad2)*%
X159525000Y-122855000D02*
X159525000Y-124930000D01*
%TO.N,/DIS*%
X170725000Y-119905000D02*
X172575000Y-119905000D01*
X168750000Y-120420000D02*
X170210000Y-120420000D01*
X172825000Y-120155000D02*
X172825000Y-122205000D01*
X170210000Y-120420000D02*
X170725000Y-119905000D01*
X172575000Y-119905000D02*
X172825000Y-120155000D01*
%TO.N,Net-(R3-Pad1)*%
X159525000Y-120855000D02*
X160775000Y-120855000D01*
X160775000Y-120855000D02*
X161610000Y-121690000D01*
X161610000Y-121690000D02*
X163800000Y-121690000D01*
%TD*%
%TA.AperFunction,Conductor*%
%TO.N,/VDD*%
G36*
X182367539Y-106925185D02*
G01*
X182413294Y-106977989D01*
X182424500Y-107029500D01*
X182424500Y-135130500D01*
X182404815Y-135197539D01*
X182352011Y-135243294D01*
X182300500Y-135254500D01*
X150199500Y-135254500D01*
X150132461Y-135234815D01*
X150086706Y-135182011D01*
X150075500Y-135130500D01*
X150075500Y-126607623D01*
X158574500Y-126607623D01*
X158574501Y-127352376D01*
X158581149Y-127413580D01*
X158631474Y-127547824D01*
X158717454Y-127662546D01*
X158724519Y-127667841D01*
X158825109Y-127743230D01*
X158825111Y-127743231D01*
X158832176Y-127748526D01*
X158966420Y-127798851D01*
X158993846Y-127801831D01*
X159024286Y-127805138D01*
X159024296Y-127805139D01*
X159027623Y-127805500D01*
X159030981Y-127805500D01*
X159032202Y-127805566D01*
X159098080Y-127828846D01*
X159140914Y-127884046D01*
X159149500Y-127929385D01*
X159149500Y-128362915D01*
X159129815Y-128429954D01*
X159107015Y-128456357D01*
X159038034Y-128516533D01*
X158947501Y-128645348D01*
X158890309Y-128792039D01*
X158869758Y-128948138D01*
X158870578Y-128955566D01*
X158870578Y-128955568D01*
X158872474Y-128972744D01*
X158887035Y-129104633D01*
X158941143Y-129252490D01*
X159028958Y-129383172D01*
X159051183Y-129403395D01*
X159139878Y-129484102D01*
X159139882Y-129484105D01*
X159145410Y-129489135D01*
X159283776Y-129564262D01*
X159386031Y-129591088D01*
X159428841Y-129602319D01*
X159428843Y-129602319D01*
X159436069Y-129604215D01*
X159513127Y-129605425D01*
X159586025Y-129606571D01*
X159586028Y-129606571D01*
X159593495Y-129606688D01*
X159600776Y-129605020D01*
X159600780Y-129605020D01*
X159739681Y-129573207D01*
X159746968Y-129571538D01*
X159887625Y-129500795D01*
X159893306Y-129495943D01*
X159893309Y-129495941D01*
X160001666Y-129403395D01*
X160001667Y-129403394D01*
X160007348Y-129398542D01*
X160018393Y-129383172D01*
X160038798Y-129354775D01*
X160099224Y-129270683D01*
X160157950Y-129124598D01*
X160159793Y-129111649D01*
X160179562Y-128972744D01*
X160179562Y-128972740D01*
X160180134Y-128968723D01*
X160180278Y-128955000D01*
X160161363Y-128798694D01*
X160105710Y-128651412D01*
X160097337Y-128639229D01*
X160020768Y-128527821D01*
X160020765Y-128527818D01*
X160016531Y-128521657D01*
X159942011Y-128455262D01*
X159905052Y-128395968D01*
X159900500Y-128362679D01*
X159900500Y-127929384D01*
X159920185Y-127862345D01*
X159972989Y-127816590D01*
X160017796Y-127805565D01*
X160019015Y-127805499D01*
X160022376Y-127805499D01*
X160083580Y-127798851D01*
X160217824Y-127748526D01*
X160224889Y-127743231D01*
X160224891Y-127743230D01*
X160325481Y-127667841D01*
X160332546Y-127662546D01*
X160418526Y-127547824D01*
X160468851Y-127413580D01*
X160475500Y-127352377D01*
X160475499Y-126607624D01*
X160468851Y-126546420D01*
X160418526Y-126412176D01*
X160332546Y-126297454D01*
X160325481Y-126292159D01*
X160224891Y-126216770D01*
X160224889Y-126216769D01*
X160217824Y-126211474D01*
X160083580Y-126161149D01*
X160022377Y-126154500D01*
X159525075Y-126154500D01*
X159027624Y-126154501D01*
X158966420Y-126161149D01*
X158832176Y-126211474D01*
X158825111Y-126216769D01*
X158825109Y-126216770D01*
X158724519Y-126292159D01*
X158717454Y-126297454D01*
X158631474Y-126412176D01*
X158581149Y-126546420D01*
X158574500Y-126607623D01*
X150075500Y-126607623D01*
X150075500Y-124557623D01*
X158574500Y-124557623D01*
X158574501Y-125302376D01*
X158581149Y-125363580D01*
X158631474Y-125497824D01*
X158717454Y-125612546D01*
X158724519Y-125617841D01*
X158825109Y-125693230D01*
X158825111Y-125693231D01*
X158832176Y-125698526D01*
X158966420Y-125748851D01*
X159027623Y-125755500D01*
X159524926Y-125755500D01*
X160022376Y-125755499D01*
X160083580Y-125748851D01*
X160217824Y-125698526D01*
X160224889Y-125693231D01*
X160224891Y-125693230D01*
X160325481Y-125617841D01*
X160332546Y-125612546D01*
X160418526Y-125497824D01*
X160468851Y-125363580D01*
X160475500Y-125302377D01*
X160475499Y-124557624D01*
X160468851Y-124496420D01*
X160418526Y-124362176D01*
X160332546Y-124247454D01*
X160325481Y-124242159D01*
X160224891Y-124166770D01*
X160224889Y-124166769D01*
X160217824Y-124161474D01*
X160083580Y-124111149D01*
X160056154Y-124108169D01*
X160025714Y-124104862D01*
X160025704Y-124104861D01*
X160022377Y-124104500D01*
X160019019Y-124104500D01*
X160017798Y-124104434D01*
X159951920Y-124081154D01*
X159909086Y-124025954D01*
X159900500Y-123980615D01*
X159900500Y-123829384D01*
X159920185Y-123762345D01*
X159972989Y-123716590D01*
X160017796Y-123705565D01*
X160019015Y-123705499D01*
X160022376Y-123705499D01*
X160083580Y-123698851D01*
X160217824Y-123648526D01*
X160224889Y-123643231D01*
X160224891Y-123643230D01*
X160325481Y-123567841D01*
X160332546Y-123562546D01*
X160371553Y-123510500D01*
X160413230Y-123454891D01*
X160413231Y-123454889D01*
X160418526Y-123447824D01*
X160424778Y-123431148D01*
X160453232Y-123355244D01*
X160468851Y-123313580D01*
X160473558Y-123270253D01*
X162554309Y-123270253D01*
X162569742Y-123314202D01*
X162578320Y-123330402D01*
X162647703Y-123424339D01*
X162660661Y-123437297D01*
X162754598Y-123506680D01*
X162770798Y-123515258D01*
X162882597Y-123554518D01*
X162897248Y-123557733D01*
X162918315Y-123559725D01*
X162924160Y-123560000D01*
X163482170Y-123560000D01*
X163497169Y-123555596D01*
X163498356Y-123554226D01*
X163500000Y-123546668D01*
X163500000Y-123542169D01*
X164100000Y-123542169D01*
X164104404Y-123557168D01*
X164105774Y-123558355D01*
X164113332Y-123559999D01*
X164675857Y-123559999D01*
X164681670Y-123559725D01*
X164702748Y-123557733D01*
X164717406Y-123554518D01*
X164829202Y-123515258D01*
X164845402Y-123506680D01*
X164939339Y-123437297D01*
X164952297Y-123424339D01*
X165021680Y-123330402D01*
X165030258Y-123314202D01*
X165043385Y-123276822D01*
X165044107Y-123262962D01*
X165038426Y-123260000D01*
X164117830Y-123260000D01*
X164102831Y-123264404D01*
X164101644Y-123265774D01*
X164100000Y-123273332D01*
X164100000Y-123542169D01*
X163500000Y-123542169D01*
X163500000Y-123277830D01*
X163495596Y-123262831D01*
X163494226Y-123261644D01*
X163486668Y-123260000D01*
X162568538Y-123260000D01*
X162555221Y-123263910D01*
X162554309Y-123270253D01*
X160473558Y-123270253D01*
X160475500Y-123252377D01*
X160475499Y-122457624D01*
X160468851Y-122396420D01*
X160418526Y-122262176D01*
X160412065Y-122253554D01*
X160337841Y-122154519D01*
X160332546Y-122147454D01*
X160249540Y-122085244D01*
X160224891Y-122066770D01*
X160224889Y-122066769D01*
X160217824Y-122061474D01*
X160083580Y-122011149D01*
X160022377Y-122004500D01*
X159525075Y-122004500D01*
X159027624Y-122004501D01*
X158966420Y-122011149D01*
X158832176Y-122061474D01*
X158825111Y-122066769D01*
X158825109Y-122066770D01*
X158800460Y-122085244D01*
X158717454Y-122147454D01*
X158712159Y-122154519D01*
X158637936Y-122253554D01*
X158631474Y-122262176D01*
X158581149Y-122396420D01*
X158574500Y-122457623D01*
X158574501Y-123252376D01*
X158581149Y-123313580D01*
X158596768Y-123355244D01*
X158625223Y-123431148D01*
X158631474Y-123447824D01*
X158636769Y-123454889D01*
X158636770Y-123454891D01*
X158678447Y-123510500D01*
X158717454Y-123562546D01*
X158724519Y-123567841D01*
X158825109Y-123643230D01*
X158825111Y-123643231D01*
X158832176Y-123648526D01*
X158966420Y-123698851D01*
X158993846Y-123701831D01*
X159024286Y-123705138D01*
X159024296Y-123705139D01*
X159027623Y-123705500D01*
X159030981Y-123705500D01*
X159032202Y-123705566D01*
X159098080Y-123728846D01*
X159140914Y-123784046D01*
X159149500Y-123829385D01*
X159149500Y-123980616D01*
X159129815Y-124047655D01*
X159077011Y-124093410D01*
X159032204Y-124104435D01*
X159030985Y-124104501D01*
X159027624Y-124104501D01*
X158966420Y-124111149D01*
X158832176Y-124161474D01*
X158825111Y-124166769D01*
X158825109Y-124166770D01*
X158724519Y-124242159D01*
X158717454Y-124247454D01*
X158631474Y-124362176D01*
X158581149Y-124496420D01*
X158574500Y-124557623D01*
X150075500Y-124557623D01*
X150075500Y-118395123D01*
X158549500Y-118395123D01*
X158549501Y-119164876D01*
X158556149Y-119226080D01*
X158606474Y-119360324D01*
X158611769Y-119367389D01*
X158611770Y-119367391D01*
X158667806Y-119442159D01*
X158692454Y-119475046D01*
X158699519Y-119480341D01*
X158800109Y-119555730D01*
X158800111Y-119555731D01*
X158807176Y-119561026D01*
X158815444Y-119564126D01*
X158815445Y-119564126D01*
X158835316Y-119571575D01*
X158941420Y-119611351D01*
X159002623Y-119618000D01*
X159524922Y-119618000D01*
X160047376Y-119617999D01*
X160108580Y-119611351D01*
X160214684Y-119571575D01*
X160234555Y-119564126D01*
X160234556Y-119564126D01*
X160242824Y-119561026D01*
X160249889Y-119555731D01*
X160249891Y-119555730D01*
X160350481Y-119480341D01*
X160357546Y-119475046D01*
X160382194Y-119442159D01*
X160438230Y-119367391D01*
X160438231Y-119367389D01*
X160443526Y-119360324D01*
X160452518Y-119336339D01*
X160486556Y-119245539D01*
X160528521Y-119189676D01*
X160594025Y-119165367D01*
X160662274Y-119180333D01*
X160690347Y-119201385D01*
X161463181Y-119974219D01*
X161496666Y-120035542D01*
X161499500Y-120061900D01*
X161499500Y-120433110D01*
X161499038Y-120443809D01*
X161497842Y-120457624D01*
X161495482Y-120484869D01*
X161497953Y-120494816D01*
X161497953Y-120494817D01*
X161505820Y-120526488D01*
X161507794Y-120536022D01*
X161511173Y-120556321D01*
X161514833Y-120578313D01*
X161519698Y-120587330D01*
X161521245Y-120591849D01*
X161523147Y-120596243D01*
X161525618Y-120606191D01*
X161535085Y-120620853D01*
X161548876Y-120642211D01*
X161553829Y-120650585D01*
X161574194Y-120688329D01*
X161581719Y-120695286D01*
X161584653Y-120699068D01*
X161587871Y-120702605D01*
X161593428Y-120711210D01*
X161601474Y-120717553D01*
X161627096Y-120737752D01*
X161634499Y-120744075D01*
X161658461Y-120766226D01*
X161658467Y-120766230D01*
X161665991Y-120773185D01*
X161675365Y-120777329D01*
X161679369Y-120779959D01*
X161683553Y-120782259D01*
X161691600Y-120788603D01*
X161701268Y-120791998D01*
X161732059Y-120802811D01*
X161741113Y-120806396D01*
X161780326Y-120823732D01*
X161790540Y-120824617D01*
X161798112Y-120826561D01*
X161802186Y-120827438D01*
X161809548Y-120830023D01*
X161815055Y-120830500D01*
X161853110Y-120830500D01*
X161863809Y-120830962D01*
X161894658Y-120833634D01*
X161894660Y-120833634D01*
X161904869Y-120834518D01*
X161914817Y-120832047D01*
X161925031Y-120831243D01*
X161925080Y-120831863D01*
X161936214Y-120830500D01*
X162617746Y-120830500D01*
X162684785Y-120850185D01*
X162705427Y-120866819D01*
X162736658Y-120898050D01*
X162803546Y-120932131D01*
X162827850Y-120944515D01*
X162878646Y-120992490D01*
X162895441Y-121060311D01*
X162872903Y-121126446D01*
X162827850Y-121165485D01*
X162736658Y-121211950D01*
X162670427Y-121278181D01*
X162609104Y-121311666D01*
X162582746Y-121314500D01*
X161816899Y-121314500D01*
X161749860Y-121294815D01*
X161729218Y-121278181D01*
X161078198Y-120627161D01*
X161063071Y-120608432D01*
X161062130Y-120607398D01*
X161056572Y-120598790D01*
X161030445Y-120578193D01*
X161026042Y-120574280D01*
X161025983Y-120574350D01*
X161022080Y-120571043D01*
X161018462Y-120567425D01*
X161002920Y-120556319D01*
X160998272Y-120552830D01*
X160958400Y-120521397D01*
X160949851Y-120518395D01*
X160942481Y-120513128D01*
X160893877Y-120498592D01*
X160888324Y-120496788D01*
X160847817Y-120482563D01*
X160847814Y-120482562D01*
X160840452Y-120479977D01*
X160834945Y-120479500D01*
X160832261Y-120479500D01*
X160829659Y-120479387D01*
X160829585Y-120479365D01*
X160829592Y-120479196D01*
X160828867Y-120479150D01*
X160822713Y-120477310D01*
X160812474Y-120477712D01*
X160812471Y-120477712D01*
X160769419Y-120479404D01*
X160764551Y-120479500D01*
X160585581Y-120479500D01*
X160518542Y-120459815D01*
X160472787Y-120407011D01*
X160469114Y-120396321D01*
X160468851Y-120396420D01*
X160421626Y-120270445D01*
X160421626Y-120270444D01*
X160418526Y-120262176D01*
X160404424Y-120243359D01*
X160337841Y-120154519D01*
X160332546Y-120147454D01*
X160292995Y-120117812D01*
X160224891Y-120066770D01*
X160224889Y-120066769D01*
X160217824Y-120061474D01*
X160083580Y-120011149D01*
X160022377Y-120004500D01*
X159525075Y-120004500D01*
X159027624Y-120004501D01*
X158966420Y-120011149D01*
X158832176Y-120061474D01*
X158825111Y-120066769D01*
X158825109Y-120066770D01*
X158757005Y-120117812D01*
X158717454Y-120147454D01*
X158712159Y-120154519D01*
X158645577Y-120243359D01*
X158631474Y-120262176D01*
X158581149Y-120396420D01*
X158574500Y-120457623D01*
X158574501Y-121252376D01*
X158581149Y-121313580D01*
X158631474Y-121447824D01*
X158636769Y-121454889D01*
X158636770Y-121454891D01*
X158712159Y-121555481D01*
X158717454Y-121562546D01*
X158724519Y-121567841D01*
X158825109Y-121643230D01*
X158825111Y-121643231D01*
X158832176Y-121648526D01*
X158966420Y-121698851D01*
X159027623Y-121705500D01*
X159524926Y-121705500D01*
X160022376Y-121705499D01*
X160083580Y-121698851D01*
X160217824Y-121648526D01*
X160224889Y-121643231D01*
X160224891Y-121643230D01*
X160325481Y-121567841D01*
X160332546Y-121562546D01*
X160337841Y-121555481D01*
X160413230Y-121454891D01*
X160413231Y-121454889D01*
X160418526Y-121447824D01*
X160421626Y-121439554D01*
X160421629Y-121439549D01*
X160464966Y-121323947D01*
X160506930Y-121268083D01*
X160572435Y-121243775D01*
X160640683Y-121258741D01*
X160668756Y-121279793D01*
X161306802Y-121917839D01*
X161321929Y-121936568D01*
X161322870Y-121937602D01*
X161328428Y-121946210D01*
X161336473Y-121952552D01*
X161354555Y-121966807D01*
X161358958Y-121970720D01*
X161359017Y-121970650D01*
X161362920Y-121973957D01*
X161366538Y-121977575D01*
X161370700Y-121980549D01*
X161382077Y-121988679D01*
X161386728Y-121992170D01*
X161426600Y-122023603D01*
X161435149Y-122026605D01*
X161442519Y-122031872D01*
X161452341Y-122034809D01*
X161452340Y-122034809D01*
X161491114Y-122046405D01*
X161496672Y-122048211D01*
X161537183Y-122062438D01*
X161537193Y-122062440D01*
X161544548Y-122065023D01*
X161550055Y-122065500D01*
X161552738Y-122065500D01*
X161555340Y-122065613D01*
X161555415Y-122065635D01*
X161555408Y-122065804D01*
X161556132Y-122065850D01*
X161562286Y-122067690D01*
X161572525Y-122067288D01*
X161572528Y-122067288D01*
X161615580Y-122065596D01*
X161620448Y-122065500D01*
X162582746Y-122065500D01*
X162649785Y-122085185D01*
X162670427Y-122101819D01*
X162736658Y-122168050D01*
X162745352Y-122172480D01*
X162745355Y-122172482D01*
X162769170Y-122184616D01*
X162819967Y-122232590D01*
X162836762Y-122300411D01*
X162814225Y-122366546D01*
X162770901Y-122404687D01*
X162754598Y-122413319D01*
X162660661Y-122482703D01*
X162647703Y-122495661D01*
X162578320Y-122589598D01*
X162569742Y-122605798D01*
X162556615Y-122643178D01*
X162555893Y-122657038D01*
X162561574Y-122660000D01*
X165031462Y-122660000D01*
X165044779Y-122656090D01*
X165045691Y-122649747D01*
X165030258Y-122605798D01*
X165021680Y-122589598D01*
X164952297Y-122495661D01*
X164939339Y-122482703D01*
X164845402Y-122413319D01*
X164829099Y-122404687D01*
X164779063Y-122355920D01*
X164763337Y-122287843D01*
X164786911Y-122222071D01*
X164830830Y-122184616D01*
X164854645Y-122172482D01*
X164854648Y-122172480D01*
X164863342Y-122168050D01*
X164953050Y-122078342D01*
X165010646Y-121965304D01*
X165025500Y-121871519D01*
X165025499Y-121508482D01*
X165010646Y-121414696D01*
X164953050Y-121301658D01*
X164863342Y-121211950D01*
X164772150Y-121165485D01*
X164721354Y-121117510D01*
X164704559Y-121049689D01*
X164727097Y-120983554D01*
X164772150Y-120944515D01*
X164796454Y-120932131D01*
X164863342Y-120898050D01*
X164929573Y-120831819D01*
X164990896Y-120798334D01*
X165017254Y-120795500D01*
X165283101Y-120795500D01*
X165350140Y-120815185D01*
X165370782Y-120831819D01*
X166456802Y-121917839D01*
X166471929Y-121936568D01*
X166472870Y-121937602D01*
X166478428Y-121946210D01*
X166486473Y-121952552D01*
X166504555Y-121966807D01*
X166508958Y-121970720D01*
X166509017Y-121970650D01*
X166512920Y-121973957D01*
X166516538Y-121977575D01*
X166520700Y-121980549D01*
X166532077Y-121988679D01*
X166536728Y-121992170D01*
X166576600Y-122023603D01*
X166585149Y-122026605D01*
X166592519Y-122031872D01*
X166602341Y-122034809D01*
X166602340Y-122034809D01*
X166641114Y-122046405D01*
X166646672Y-122048211D01*
X166687183Y-122062438D01*
X166687193Y-122062440D01*
X166694548Y-122065023D01*
X166700055Y-122065500D01*
X166702738Y-122065500D01*
X166705340Y-122065613D01*
X166705415Y-122065635D01*
X166705408Y-122065804D01*
X166706132Y-122065850D01*
X166712286Y-122067690D01*
X166722525Y-122067288D01*
X166722528Y-122067288D01*
X166765580Y-122065596D01*
X166770448Y-122065500D01*
X167532746Y-122065500D01*
X167599785Y-122085185D01*
X167620427Y-122101819D01*
X167686658Y-122168050D01*
X167722083Y-122186100D01*
X167777850Y-122214515D01*
X167828646Y-122262490D01*
X167845441Y-122330311D01*
X167822903Y-122396446D01*
X167777850Y-122435485D01*
X167686658Y-122481950D01*
X167596950Y-122571658D01*
X167539354Y-122684696D01*
X167524500Y-122778481D01*
X167524501Y-123141518D01*
X167539354Y-123235304D01*
X167596950Y-123348342D01*
X167686658Y-123438050D01*
X167799696Y-123495646D01*
X167828933Y-123500277D01*
X167888661Y-123509737D01*
X167888666Y-123509737D01*
X167893481Y-123510500D01*
X167898359Y-123510500D01*
X168750615Y-123510499D01*
X169606518Y-123510499D01*
X169688888Y-123497454D01*
X169690669Y-123497172D01*
X169690670Y-123497172D01*
X169700304Y-123495646D01*
X169813342Y-123438050D01*
X169903050Y-123348342D01*
X169960646Y-123235304D01*
X169975500Y-123141519D01*
X169975499Y-122778482D01*
X169960646Y-122684696D01*
X169903050Y-122571658D01*
X169813342Y-122481950D01*
X169722150Y-122435485D01*
X169671354Y-122387510D01*
X169654559Y-122319689D01*
X169677097Y-122253554D01*
X169722150Y-122214515D01*
X169777917Y-122186100D01*
X169813342Y-122168050D01*
X169879573Y-122101819D01*
X169940896Y-122068334D01*
X169967254Y-122065500D01*
X170103101Y-122065500D01*
X170170140Y-122085185D01*
X170190782Y-122101819D01*
X170613181Y-122524218D01*
X170646666Y-122585541D01*
X170649500Y-122611899D01*
X170649500Y-124433110D01*
X170649038Y-124443808D01*
X170645482Y-124484869D01*
X170647953Y-124494816D01*
X170647953Y-124494817D01*
X170655820Y-124526488D01*
X170657794Y-124536022D01*
X170661949Y-124560983D01*
X170664833Y-124578313D01*
X170669698Y-124587330D01*
X170671245Y-124591849D01*
X170673147Y-124596243D01*
X170675618Y-124606191D01*
X170681179Y-124614803D01*
X170698876Y-124642211D01*
X170703829Y-124650585D01*
X170724194Y-124688329D01*
X170731719Y-124695286D01*
X170734653Y-124699068D01*
X170737871Y-124702605D01*
X170743428Y-124711210D01*
X170751474Y-124717553D01*
X170777096Y-124737752D01*
X170784499Y-124744075D01*
X170808461Y-124766226D01*
X170808467Y-124766230D01*
X170815991Y-124773185D01*
X170825365Y-124777329D01*
X170829369Y-124779959D01*
X170833553Y-124782259D01*
X170841600Y-124788603D01*
X170851268Y-124791998D01*
X170882059Y-124802811D01*
X170891113Y-124806396D01*
X170930326Y-124823732D01*
X170940540Y-124824617D01*
X170948112Y-124826561D01*
X170952186Y-124827438D01*
X170959548Y-124830023D01*
X170965055Y-124830500D01*
X171003110Y-124830500D01*
X171013809Y-124830962D01*
X171044658Y-124833634D01*
X171044660Y-124833634D01*
X171054869Y-124834518D01*
X171064817Y-124832047D01*
X171075031Y-124831243D01*
X171075080Y-124831863D01*
X171086214Y-124830500D01*
X171893937Y-124830500D01*
X171960976Y-124850185D01*
X171993160Y-124880131D01*
X172017454Y-124912546D01*
X172024519Y-124917841D01*
X172024520Y-124917842D01*
X172125109Y-124993230D01*
X172125111Y-124993231D01*
X172132176Y-124998526D01*
X172266420Y-125048851D01*
X172327623Y-125055500D01*
X172824926Y-125055500D01*
X173322376Y-125055499D01*
X173383580Y-125048851D01*
X173517824Y-124998526D01*
X173524889Y-124993231D01*
X173524891Y-124993230D01*
X173625481Y-124917841D01*
X173632546Y-124912546D01*
X173637841Y-124905481D01*
X173713230Y-124804891D01*
X173713231Y-124804889D01*
X173718526Y-124797824D01*
X173768851Y-124663580D01*
X173775500Y-124602377D01*
X173775499Y-123807624D01*
X173768851Y-123746420D01*
X173718526Y-123612176D01*
X173677300Y-123557168D01*
X173637841Y-123504519D01*
X173632546Y-123497454D01*
X173575755Y-123454891D01*
X173524891Y-123416770D01*
X173524889Y-123416769D01*
X173517824Y-123411474D01*
X173383580Y-123361149D01*
X173322377Y-123354500D01*
X172825075Y-123354500D01*
X172327624Y-123354501D01*
X172266420Y-123361149D01*
X172132176Y-123411474D01*
X172125111Y-123416769D01*
X172125109Y-123416770D01*
X172074245Y-123454891D01*
X172017454Y-123497454D01*
X172012159Y-123504519D01*
X171972701Y-123557168D01*
X171931474Y-123612176D01*
X171881149Y-123746420D01*
X171874500Y-123807623D01*
X171874500Y-123955500D01*
X171854815Y-124022539D01*
X171802011Y-124068294D01*
X171750500Y-124079500D01*
X171524500Y-124079500D01*
X171457461Y-124059815D01*
X171411706Y-124007011D01*
X171400500Y-123955500D01*
X171400500Y-122458281D01*
X171403046Y-122434356D01*
X171403112Y-122432952D01*
X171405269Y-122422934D01*
X171403110Y-122404687D01*
X171401359Y-122389898D01*
X171401012Y-122384016D01*
X171400922Y-122384023D01*
X171400500Y-122378918D01*
X171400500Y-122373807D01*
X171397361Y-122354947D01*
X171396539Y-122349168D01*
X171391781Y-122308968D01*
X171391780Y-122308966D01*
X171390576Y-122298790D01*
X171386654Y-122290623D01*
X171385167Y-122281687D01*
X171361077Y-122237042D01*
X171358425Y-122231837D01*
X171339840Y-122193133D01*
X171336463Y-122186100D01*
X171332906Y-122181869D01*
X171331020Y-122179983D01*
X171329249Y-122178053D01*
X171329221Y-122178000D01*
X171329348Y-122177883D01*
X171328857Y-122177326D01*
X171325806Y-122171671D01*
X171314423Y-122161148D01*
X171286619Y-122135447D01*
X171283109Y-122132072D01*
X170555998Y-121404961D01*
X170548760Y-121397069D01*
X170528834Y-121373364D01*
X170528829Y-121373360D01*
X170522239Y-121365520D01*
X170485510Y-121343407D01*
X170477373Y-121338062D01*
X170467706Y-121331154D01*
X170442481Y-121313128D01*
X170432661Y-121310191D01*
X170428358Y-121308083D01*
X170423918Y-121306325D01*
X170415142Y-121301042D01*
X170373226Y-121292018D01*
X170363799Y-121289598D01*
X170339124Y-121282218D01*
X170332531Y-121280246D01*
X170332530Y-121280246D01*
X170322713Y-121277310D01*
X170312473Y-121277712D01*
X170307740Y-121277114D01*
X170302954Y-121276888D01*
X170292933Y-121274731D01*
X170282760Y-121275935D01*
X170282759Y-121275935D01*
X170275057Y-121276847D01*
X170250334Y-121279773D01*
X170240642Y-121280534D01*
X170228252Y-121281021D01*
X170208045Y-121281815D01*
X170208042Y-121281816D01*
X170197801Y-121282218D01*
X170188241Y-121285917D01*
X170183545Y-121286889D01*
X170178964Y-121288220D01*
X170168790Y-121289424D01*
X170142014Y-121302282D01*
X170088340Y-121314500D01*
X169967254Y-121314500D01*
X169900215Y-121294815D01*
X169879573Y-121278181D01*
X169813342Y-121211950D01*
X169722150Y-121165485D01*
X169671354Y-121117510D01*
X169654559Y-121049689D01*
X169677097Y-120983554D01*
X169722150Y-120944515D01*
X169746454Y-120932131D01*
X169813342Y-120898050D01*
X169879573Y-120831819D01*
X169940896Y-120798334D01*
X169967254Y-120795500D01*
X170156716Y-120795500D01*
X170180651Y-120798047D01*
X170182052Y-120798113D01*
X170192066Y-120800269D01*
X170202239Y-120799065D01*
X170225102Y-120796359D01*
X170230984Y-120796012D01*
X170230977Y-120795922D01*
X170236082Y-120795500D01*
X170241193Y-120795500D01*
X170260053Y-120792361D01*
X170265832Y-120791539D01*
X170306032Y-120786781D01*
X170306034Y-120786780D01*
X170316210Y-120785576D01*
X170324377Y-120781654D01*
X170333313Y-120780167D01*
X170377958Y-120756077D01*
X170383163Y-120753425D01*
X170421867Y-120734840D01*
X170421866Y-120734840D01*
X170428900Y-120731463D01*
X170433131Y-120727906D01*
X170435017Y-120726020D01*
X170436947Y-120724249D01*
X170437000Y-120724221D01*
X170437117Y-120724348D01*
X170437674Y-120723857D01*
X170443329Y-120720806D01*
X170452200Y-120711210D01*
X170479553Y-120681619D01*
X170482928Y-120678109D01*
X170844218Y-120316819D01*
X170905541Y-120283334D01*
X170931899Y-120280500D01*
X171750501Y-120280500D01*
X171817540Y-120300185D01*
X171863295Y-120352989D01*
X171874501Y-120404500D01*
X171874501Y-120552376D01*
X171881149Y-120613580D01*
X171915044Y-120703996D01*
X171926607Y-120734840D01*
X171931474Y-120747824D01*
X171936769Y-120754889D01*
X171936770Y-120754891D01*
X171994425Y-120831819D01*
X172017454Y-120862546D01*
X172024519Y-120867841D01*
X172125109Y-120943230D01*
X172125111Y-120943231D01*
X172132176Y-120948526D01*
X172266420Y-120998851D01*
X172293846Y-121001831D01*
X172324286Y-121005138D01*
X172324296Y-121005139D01*
X172327623Y-121005500D01*
X172330981Y-121005500D01*
X172332202Y-121005566D01*
X172398080Y-121028846D01*
X172440914Y-121084046D01*
X172449500Y-121129385D01*
X172449500Y-121230616D01*
X172429815Y-121297655D01*
X172377011Y-121343410D01*
X172332204Y-121354435D01*
X172330985Y-121354501D01*
X172327624Y-121354501D01*
X172266420Y-121361149D01*
X172170602Y-121397069D01*
X172149550Y-121404961D01*
X172132176Y-121411474D01*
X172125111Y-121416769D01*
X172125109Y-121416770D01*
X172074245Y-121454891D01*
X172017454Y-121497454D01*
X171931474Y-121612176D01*
X171881149Y-121746420D01*
X171874500Y-121807623D01*
X171874501Y-122602376D01*
X171881149Y-122663580D01*
X171931474Y-122797824D01*
X172017454Y-122912546D01*
X172024519Y-122917841D01*
X172125109Y-122993230D01*
X172125111Y-122993231D01*
X172132176Y-122998526D01*
X172266420Y-123048851D01*
X172327623Y-123055500D01*
X172824926Y-123055500D01*
X173322376Y-123055499D01*
X173383580Y-123048851D01*
X173517824Y-122998526D01*
X173524889Y-122993231D01*
X173524891Y-122993230D01*
X173625481Y-122917841D01*
X173632546Y-122912546D01*
X173718526Y-122797824D01*
X173768851Y-122663580D01*
X173775500Y-122602377D01*
X173775499Y-121807624D01*
X173768851Y-121746420D01*
X173718526Y-121612176D01*
X173632546Y-121497454D01*
X173575755Y-121454891D01*
X173524891Y-121416770D01*
X173524889Y-121416769D01*
X173517824Y-121411474D01*
X173500451Y-121404961D01*
X173478232Y-121396632D01*
X173383580Y-121361149D01*
X173356154Y-121358169D01*
X173325714Y-121354862D01*
X173325704Y-121354861D01*
X173322377Y-121354500D01*
X173319019Y-121354500D01*
X173317798Y-121354434D01*
X173251920Y-121331154D01*
X173209086Y-121275954D01*
X173200500Y-121230615D01*
X173200500Y-121129384D01*
X173220185Y-121062345D01*
X173272989Y-121016590D01*
X173317796Y-121005565D01*
X173319015Y-121005499D01*
X173322376Y-121005499D01*
X173383580Y-120998851D01*
X173517824Y-120948526D01*
X173524889Y-120943231D01*
X173524891Y-120943230D01*
X173625481Y-120867841D01*
X173632546Y-120862546D01*
X173655575Y-120831819D01*
X173713230Y-120754891D01*
X173713231Y-120754889D01*
X173718526Y-120747824D01*
X173723394Y-120734840D01*
X173734956Y-120703996D01*
X173768851Y-120613580D01*
X173775500Y-120552377D01*
X173775499Y-119757624D01*
X173768851Y-119696420D01*
X173725985Y-119582072D01*
X173721626Y-119570445D01*
X173721626Y-119570444D01*
X173718526Y-119562176D01*
X173709177Y-119549701D01*
X173637841Y-119454519D01*
X173632546Y-119447454D01*
X173590136Y-119415669D01*
X173524891Y-119366770D01*
X173524889Y-119366769D01*
X173517824Y-119361474D01*
X173492699Y-119352055D01*
X173450775Y-119336339D01*
X173383580Y-119311149D01*
X173322377Y-119304500D01*
X172825075Y-119304500D01*
X172327624Y-119304501D01*
X172266420Y-119311149D01*
X172199225Y-119336339D01*
X172157302Y-119352055D01*
X172132176Y-119361474D01*
X172125111Y-119366769D01*
X172125109Y-119366770D01*
X172035405Y-119434000D01*
X172017454Y-119447454D01*
X171993161Y-119479868D01*
X171937205Y-119521706D01*
X171893937Y-119529500D01*
X170778284Y-119529500D01*
X170754349Y-119526953D01*
X170752948Y-119526887D01*
X170742934Y-119524731D01*
X170732761Y-119525935D01*
X170709898Y-119528641D01*
X170704016Y-119528988D01*
X170704023Y-119529078D01*
X170698918Y-119529500D01*
X170693807Y-119529500D01*
X170674947Y-119532639D01*
X170669168Y-119533461D01*
X170628968Y-119538219D01*
X170628966Y-119538220D01*
X170618790Y-119539424D01*
X170610623Y-119543346D01*
X170601687Y-119544833D01*
X170557043Y-119568922D01*
X170551840Y-119571574D01*
X170506100Y-119593537D01*
X170501869Y-119597094D01*
X170499983Y-119598980D01*
X170498053Y-119600751D01*
X170498000Y-119600779D01*
X170497883Y-119600652D01*
X170497326Y-119601143D01*
X170491671Y-119604194D01*
X170484711Y-119611723D01*
X170484710Y-119611724D01*
X170455447Y-119643381D01*
X170452072Y-119646891D01*
X170090782Y-120008181D01*
X170029459Y-120041666D01*
X170003101Y-120044500D01*
X169967254Y-120044500D01*
X169900215Y-120024815D01*
X169879573Y-120008181D01*
X169813342Y-119941950D01*
X169804648Y-119937520D01*
X169804645Y-119937518D01*
X169780830Y-119925384D01*
X169730033Y-119877410D01*
X169713238Y-119809589D01*
X169735775Y-119743454D01*
X169779099Y-119705313D01*
X169795402Y-119696681D01*
X169889339Y-119627297D01*
X169902297Y-119614339D01*
X169971680Y-119520402D01*
X169980258Y-119504202D01*
X169993385Y-119466822D01*
X169994107Y-119452962D01*
X169988426Y-119450000D01*
X167518538Y-119450000D01*
X167505221Y-119453910D01*
X167504309Y-119460253D01*
X167519742Y-119504202D01*
X167528320Y-119520402D01*
X167597703Y-119614339D01*
X167610661Y-119627297D01*
X167704598Y-119696681D01*
X167720901Y-119705313D01*
X167770937Y-119754080D01*
X167786663Y-119822157D01*
X167763089Y-119887929D01*
X167719170Y-119925384D01*
X167695355Y-119937518D01*
X167695352Y-119937520D01*
X167686658Y-119941950D01*
X167596950Y-120031658D01*
X167539354Y-120144696D01*
X167524500Y-120238481D01*
X167524501Y-120601518D01*
X167539354Y-120695304D01*
X167596950Y-120808342D01*
X167686658Y-120898050D01*
X167753546Y-120932131D01*
X167777850Y-120944515D01*
X167828646Y-120992490D01*
X167845441Y-121060311D01*
X167822903Y-121126446D01*
X167777850Y-121165485D01*
X167686658Y-121211950D01*
X167620427Y-121278181D01*
X167559104Y-121311666D01*
X167532746Y-121314500D01*
X166966899Y-121314500D01*
X166899860Y-121294815D01*
X166879218Y-121278181D01*
X165793198Y-120192161D01*
X165778071Y-120173432D01*
X165777130Y-120172398D01*
X165771572Y-120163790D01*
X165750155Y-120146906D01*
X165745445Y-120143193D01*
X165741042Y-120139280D01*
X165740983Y-120139350D01*
X165737080Y-120136043D01*
X165733462Y-120132425D01*
X165717920Y-120121319D01*
X165713272Y-120117830D01*
X165673400Y-120086397D01*
X165664851Y-120083395D01*
X165657481Y-120078128D01*
X165608877Y-120063592D01*
X165603324Y-120061788D01*
X165562817Y-120047563D01*
X165562814Y-120047562D01*
X165555452Y-120044977D01*
X165549945Y-120044500D01*
X165547261Y-120044500D01*
X165544659Y-120044387D01*
X165544585Y-120044365D01*
X165544592Y-120044196D01*
X165543867Y-120044150D01*
X165537713Y-120042310D01*
X165527474Y-120042712D01*
X165527471Y-120042712D01*
X165484419Y-120044404D01*
X165479551Y-120044500D01*
X165017254Y-120044500D01*
X164950215Y-120024815D01*
X164929573Y-120008181D01*
X164863342Y-119941950D01*
X164772150Y-119895485D01*
X164721354Y-119847510D01*
X164704559Y-119779689D01*
X164727097Y-119713554D01*
X164772150Y-119674515D01*
X164796454Y-119662131D01*
X164863342Y-119628050D01*
X164953050Y-119538342D01*
X165010646Y-119425304D01*
X165015277Y-119396067D01*
X165024737Y-119336339D01*
X165024737Y-119336334D01*
X165025500Y-119331519D01*
X165025499Y-118968482D01*
X165010646Y-118874696D01*
X164996553Y-118847038D01*
X167505893Y-118847038D01*
X167511574Y-118850000D01*
X168432170Y-118850000D01*
X168447169Y-118845596D01*
X168448356Y-118844226D01*
X168450000Y-118836668D01*
X168450000Y-118832170D01*
X169050000Y-118832170D01*
X169054404Y-118847169D01*
X169055774Y-118848356D01*
X169063332Y-118850000D01*
X169981462Y-118850000D01*
X169994779Y-118846090D01*
X169995691Y-118839747D01*
X169980258Y-118795798D01*
X169971680Y-118779598D01*
X169902297Y-118685661D01*
X169889339Y-118672703D01*
X169795402Y-118603320D01*
X169779202Y-118594742D01*
X169667403Y-118555482D01*
X169652752Y-118552267D01*
X169631685Y-118550275D01*
X169625840Y-118550000D01*
X169067830Y-118550000D01*
X169052831Y-118554404D01*
X169051644Y-118555774D01*
X169050000Y-118563332D01*
X169050000Y-118832170D01*
X168450000Y-118832170D01*
X168450000Y-118567831D01*
X168445596Y-118552832D01*
X168444226Y-118551645D01*
X168436668Y-118550001D01*
X167874143Y-118550001D01*
X167868330Y-118550275D01*
X167847252Y-118552267D01*
X167832594Y-118555482D01*
X167720798Y-118594742D01*
X167704598Y-118603320D01*
X167610661Y-118672703D01*
X167597703Y-118685661D01*
X167528320Y-118779598D01*
X167519742Y-118795798D01*
X167506615Y-118833178D01*
X167505893Y-118847038D01*
X164996553Y-118847038D01*
X164953050Y-118761658D01*
X164863342Y-118671950D01*
X164750304Y-118614354D01*
X164721067Y-118609723D01*
X164661339Y-118600263D01*
X164661334Y-118600263D01*
X164656519Y-118599500D01*
X164299500Y-118599500D01*
X164232461Y-118579815D01*
X164201431Y-118544004D01*
X171825000Y-118544004D01*
X171825448Y-118551433D01*
X171834897Y-118629521D01*
X171838786Y-118644833D01*
X171888214Y-118769674D01*
X171896439Y-118784270D01*
X171977325Y-118890833D01*
X171989167Y-118902675D01*
X172095730Y-118983561D01*
X172110326Y-118991786D01*
X172235167Y-119041214D01*
X172250479Y-119045103D01*
X172328567Y-119054552D01*
X172335996Y-119055000D01*
X172507170Y-119055000D01*
X172522169Y-119050596D01*
X172523356Y-119049226D01*
X172525000Y-119041668D01*
X172525000Y-119037170D01*
X173125000Y-119037170D01*
X173129404Y-119052169D01*
X173130774Y-119053356D01*
X173138332Y-119055000D01*
X173314004Y-119055000D01*
X173321433Y-119054552D01*
X173399521Y-119045103D01*
X173414833Y-119041214D01*
X173539674Y-118991786D01*
X173554270Y-118983561D01*
X173660833Y-118902675D01*
X173672675Y-118890833D01*
X173753561Y-118784270D01*
X173761786Y-118769674D01*
X173811214Y-118644833D01*
X173815103Y-118629521D01*
X173824552Y-118551433D01*
X173825000Y-118544004D01*
X173825000Y-118472830D01*
X173820596Y-118457831D01*
X173819226Y-118456644D01*
X173811668Y-118455000D01*
X173142830Y-118455000D01*
X173127831Y-118459404D01*
X173126644Y-118460774D01*
X173125000Y-118468332D01*
X173125000Y-119037170D01*
X172525000Y-119037170D01*
X172525000Y-118472830D01*
X172520596Y-118457831D01*
X172519226Y-118456644D01*
X172511668Y-118455000D01*
X171842830Y-118455000D01*
X171827831Y-118459404D01*
X171826644Y-118460774D01*
X171825000Y-118468332D01*
X171825000Y-118544004D01*
X164201431Y-118544004D01*
X164186706Y-118527011D01*
X164175500Y-118475500D01*
X164175500Y-117837170D01*
X171825000Y-117837170D01*
X171829404Y-117852169D01*
X171830774Y-117853356D01*
X171838332Y-117855000D01*
X172507170Y-117855000D01*
X172522169Y-117850596D01*
X172523356Y-117849226D01*
X172525000Y-117841668D01*
X172525000Y-117837170D01*
X173125000Y-117837170D01*
X173129404Y-117852169D01*
X173130774Y-117853356D01*
X173138332Y-117855000D01*
X173807170Y-117855000D01*
X173822169Y-117850596D01*
X173823356Y-117849226D01*
X173825000Y-117841668D01*
X173825000Y-117765996D01*
X173824552Y-117758567D01*
X173815103Y-117680479D01*
X173811214Y-117665167D01*
X173761786Y-117540326D01*
X173753561Y-117525730D01*
X173672675Y-117419167D01*
X173660833Y-117407325D01*
X173554270Y-117326439D01*
X173539674Y-117318214D01*
X173414833Y-117268786D01*
X173399521Y-117264897D01*
X173321433Y-117255448D01*
X173314004Y-117255000D01*
X173142830Y-117255000D01*
X173127831Y-117259404D01*
X173126644Y-117260774D01*
X173125000Y-117268332D01*
X173125000Y-117837170D01*
X172525000Y-117837170D01*
X172525000Y-117272830D01*
X172520596Y-117257831D01*
X172519226Y-117256644D01*
X172511668Y-117255000D01*
X172335996Y-117255000D01*
X172328567Y-117255448D01*
X172250479Y-117264897D01*
X172235167Y-117268786D01*
X172110326Y-117318214D01*
X172095730Y-117326439D01*
X171989167Y-117407325D01*
X171977325Y-117419167D01*
X171896439Y-117525730D01*
X171888214Y-117540326D01*
X171838786Y-117665167D01*
X171834897Y-117680479D01*
X171825448Y-117758567D01*
X171825000Y-117765996D01*
X171825000Y-117837170D01*
X164175500Y-117837170D01*
X164175500Y-117375612D01*
X164195185Y-117308573D01*
X164218968Y-117281322D01*
X164251666Y-117253395D01*
X164257348Y-117248542D01*
X164268393Y-117233172D01*
X164322155Y-117158353D01*
X164349224Y-117120683D01*
X164407950Y-116974598D01*
X164409793Y-116961649D01*
X164429562Y-116822744D01*
X164429562Y-116822740D01*
X164430134Y-116818723D01*
X164430278Y-116805000D01*
X164411363Y-116648694D01*
X164355710Y-116501412D01*
X164347337Y-116489229D01*
X164270768Y-116377821D01*
X164270765Y-116377818D01*
X164266531Y-116371657D01*
X164148976Y-116266919D01*
X164009831Y-116193245D01*
X163857128Y-116154889D01*
X163775329Y-116154461D01*
X163707158Y-116154104D01*
X163707157Y-116154104D01*
X163699684Y-116154065D01*
X163692421Y-116155809D01*
X163692418Y-116155809D01*
X163623136Y-116172443D01*
X163546588Y-116190820D01*
X163406679Y-116263032D01*
X163288034Y-116366533D01*
X163197501Y-116495348D01*
X163140309Y-116642039D01*
X163119758Y-116798138D01*
X163120578Y-116805566D01*
X163120578Y-116805568D01*
X163122474Y-116822744D01*
X163137035Y-116954633D01*
X163191143Y-117102490D01*
X163278958Y-117233172D01*
X163383955Y-117328712D01*
X163420290Y-117388387D01*
X163424500Y-117420424D01*
X163424500Y-118475501D01*
X163404815Y-118542540D01*
X163352011Y-118588295D01*
X163300500Y-118599501D01*
X162943482Y-118599501D01*
X162870849Y-118611004D01*
X162859331Y-118612828D01*
X162859330Y-118612828D01*
X162849696Y-118614354D01*
X162736658Y-118671950D01*
X162646950Y-118761658D01*
X162589354Y-118874696D01*
X162574500Y-118968481D01*
X162574501Y-119331518D01*
X162589354Y-119425304D01*
X162646950Y-119538342D01*
X162736658Y-119628050D01*
X162803546Y-119662131D01*
X162827850Y-119674515D01*
X162878646Y-119722490D01*
X162895441Y-119790311D01*
X162872903Y-119856446D01*
X162827850Y-119895485D01*
X162736658Y-119941950D01*
X162646950Y-120031658D01*
X162646936Y-120031686D01*
X162595885Y-120071051D01*
X162550897Y-120079500D01*
X162374500Y-120079500D01*
X162307461Y-120059815D01*
X162261706Y-120007011D01*
X162250500Y-119955500D01*
X162250500Y-119908285D01*
X162253047Y-119884359D01*
X162253113Y-119882951D01*
X162255270Y-119872934D01*
X162254066Y-119862759D01*
X162254066Y-119862754D01*
X162251360Y-119839891D01*
X162251013Y-119834014D01*
X162250921Y-119834022D01*
X162250500Y-119828927D01*
X162250500Y-119823807D01*
X162249660Y-119818760D01*
X162249659Y-119818749D01*
X162247367Y-119804981D01*
X162246544Y-119799198D01*
X162241783Y-119758970D01*
X162241781Y-119758963D01*
X162240577Y-119748791D01*
X162236654Y-119740622D01*
X162235167Y-119731687D01*
X162230303Y-119722672D01*
X162230301Y-119722667D01*
X162211074Y-119687033D01*
X162208422Y-119681830D01*
X162191644Y-119646891D01*
X162186463Y-119636101D01*
X162182906Y-119631869D01*
X162180996Y-119629959D01*
X162179251Y-119628057D01*
X162179216Y-119627992D01*
X162179342Y-119627876D01*
X162178857Y-119627326D01*
X162175806Y-119621671D01*
X162167875Y-119614339D01*
X162136619Y-119585447D01*
X162133109Y-119582072D01*
X161103198Y-118552161D01*
X161088071Y-118533432D01*
X161087130Y-118532398D01*
X161081572Y-118523790D01*
X161055445Y-118503193D01*
X161051042Y-118499280D01*
X161050983Y-118499350D01*
X161047080Y-118496043D01*
X161043462Y-118492425D01*
X161027920Y-118481319D01*
X161023272Y-118477830D01*
X160983400Y-118446397D01*
X160974851Y-118443395D01*
X160967481Y-118438128D01*
X160918877Y-118423592D01*
X160913324Y-118421788D01*
X160872817Y-118407563D01*
X160872814Y-118407562D01*
X160865452Y-118404977D01*
X160859945Y-118404500D01*
X160857261Y-118404500D01*
X160854659Y-118404387D01*
X160854585Y-118404365D01*
X160854592Y-118404196D01*
X160853867Y-118404150D01*
X160847713Y-118402310D01*
X160837474Y-118402712D01*
X160837471Y-118402712D01*
X160794419Y-118404404D01*
X160789551Y-118404500D01*
X160606252Y-118404500D01*
X160539213Y-118384815D01*
X160493458Y-118332011D01*
X160490142Y-118324027D01*
X160446626Y-118207945D01*
X160446626Y-118207944D01*
X160443526Y-118199676D01*
X160357546Y-118084954D01*
X160350481Y-118079659D01*
X160249891Y-118004270D01*
X160249889Y-118004269D01*
X160242824Y-117998974D01*
X160108580Y-117948649D01*
X160047377Y-117942000D01*
X159525078Y-117942000D01*
X159002624Y-117942001D01*
X158941420Y-117948649D01*
X158807176Y-117998974D01*
X158800111Y-118004269D01*
X158800109Y-118004270D01*
X158699519Y-118079659D01*
X158692454Y-118084954D01*
X158606474Y-118199676D01*
X158556149Y-118333920D01*
X158549500Y-118395123D01*
X150075500Y-118395123D01*
X150075500Y-116320123D01*
X158549500Y-116320123D01*
X158549501Y-117089876D01*
X158556149Y-117151080D01*
X158588809Y-117238202D01*
X158596168Y-117257831D01*
X158606474Y-117285324D01*
X158611769Y-117292389D01*
X158611770Y-117292391D01*
X158683716Y-117388387D01*
X158692454Y-117400046D01*
X158699519Y-117405341D01*
X158800109Y-117480730D01*
X158800111Y-117480731D01*
X158807176Y-117486026D01*
X158941420Y-117536351D01*
X159002623Y-117543000D01*
X159524922Y-117543000D01*
X160047376Y-117542999D01*
X160108580Y-117536351D01*
X160242824Y-117486026D01*
X160249889Y-117480731D01*
X160249891Y-117480730D01*
X160350481Y-117405341D01*
X160357546Y-117400046D01*
X160366284Y-117388387D01*
X160438230Y-117292391D01*
X160438231Y-117292389D01*
X160443526Y-117285324D01*
X160453833Y-117257831D01*
X160491123Y-117158356D01*
X160493851Y-117151080D01*
X160500500Y-117089877D01*
X160500499Y-116320124D01*
X160493851Y-116258920D01*
X160443526Y-116124676D01*
X160357546Y-116009954D01*
X160350481Y-116004659D01*
X160249891Y-115929270D01*
X160249889Y-115929269D01*
X160242824Y-115923974D01*
X160108580Y-115873649D01*
X160047377Y-115867000D01*
X160024500Y-115867000D01*
X159957461Y-115847315D01*
X159911706Y-115794511D01*
X159900500Y-115743000D01*
X159900500Y-114996964D01*
X159920185Y-114929925D01*
X159943968Y-114902674D01*
X160001666Y-114853395D01*
X160007348Y-114848542D01*
X160018393Y-114833172D01*
X160038798Y-114804775D01*
X160099224Y-114720683D01*
X160157950Y-114574598D01*
X160159793Y-114561649D01*
X160179562Y-114422744D01*
X160179562Y-114422740D01*
X160180134Y-114418723D01*
X160180278Y-114405000D01*
X160161363Y-114248694D01*
X160105710Y-114101412D01*
X160097337Y-114089229D01*
X160020768Y-113977821D01*
X160020765Y-113977818D01*
X160016531Y-113971657D01*
X159898976Y-113866919D01*
X159759831Y-113793245D01*
X159607128Y-113754889D01*
X159525329Y-113754461D01*
X159457158Y-113754104D01*
X159457157Y-113754104D01*
X159449684Y-113754065D01*
X159442421Y-113755809D01*
X159442418Y-113755809D01*
X159373136Y-113772443D01*
X159296588Y-113790820D01*
X159156679Y-113863032D01*
X159038034Y-113966533D01*
X158947501Y-114095348D01*
X158890309Y-114242039D01*
X158869758Y-114398138D01*
X158870578Y-114405566D01*
X158870578Y-114405568D01*
X158872474Y-114422744D01*
X158887035Y-114554633D01*
X158941143Y-114702490D01*
X159028958Y-114833172D01*
X159108955Y-114905963D01*
X159145290Y-114965640D01*
X159149500Y-114997676D01*
X159149500Y-115743001D01*
X159129815Y-115810040D01*
X159077011Y-115855795D01*
X159025500Y-115867001D01*
X159002624Y-115867001D01*
X158941420Y-115873649D01*
X158807176Y-115923974D01*
X158800111Y-115929269D01*
X158800109Y-115929270D01*
X158699519Y-116004659D01*
X158692454Y-116009954D01*
X158606474Y-116124676D01*
X158556149Y-116258920D01*
X158549500Y-116320123D01*
X150075500Y-116320123D01*
X150075500Y-107029500D01*
X150095185Y-106962461D01*
X150147989Y-106916706D01*
X150199500Y-106905500D01*
X182300500Y-106905500D01*
X182367539Y-106925185D01*
G37*
%TD.AperFunction*%
%TD*%
M02*
