%TF.GenerationSoftware,KiCad,Pcbnew,(6.0.11)*%
%TF.CreationDate,2023-09-04T13:57:39-04:00*%
%TF.ProjectId,BlinkyProject,426c696e-6b79-4507-926f-6a6563742e6b,rev?*%
%TF.SameCoordinates,Original*%
%TF.FileFunction,Copper,L2,Bot*%
%TF.FilePolarity,Positive*%
%FSLAX46Y46*%
G04 Gerber Fmt 4.6, Leading zero omitted, Abs format (unit mm)*
G04 Created by KiCad (PCBNEW (6.0.11)) date 2023-09-04 13:57:39*
%MOMM*%
%LPD*%
G01*
G04 APERTURE LIST*
%TA.AperFunction,SMDPad,CuDef*%
%ADD10R,5.500000X5.500000*%
%TD*%
%TA.AperFunction,SMDPad,CuDef*%
%ADD11R,4.000000X4.000000*%
%TD*%
%TA.AperFunction,ViaPad*%
%ADD12C,0.800000*%
%TD*%
%TA.AperFunction,Conductor*%
%ADD13C,0.250000*%
%TD*%
G04 APERTURE END LIST*
D10*
%TO.P,BT1,1,+*%
%TO.N,/VDD*%
X153475000Y-121005000D03*
X179075000Y-121005000D03*
D11*
%TO.P,BT1,2,-*%
%TO.N,GND*%
X166275000Y-121005000D03*
%TD*%
D12*
%TO.N,/VDD*%
X153525000Y-115155000D03*
X178975000Y-115555000D03*
%TO.N,GND*%
X159525000Y-128955000D03*
X163775000Y-116805000D03*
X159525000Y-114405000D03*
%TD*%
D13*
%TO.N,/VDD*%
X153475000Y-115205000D02*
X153525000Y-115155000D01*
X179075000Y-115655000D02*
X178975000Y-115555000D01*
X153475000Y-121005000D02*
X153475000Y-115205000D01*
X179075000Y-121005000D02*
X179075000Y-115655000D01*
%TD*%
%TA.AperFunction,Conductor*%
%TO.N,GND*%
G36*
X182417539Y-106875185D02*
G01*
X182463294Y-106927989D01*
X182474500Y-106979500D01*
X182474500Y-135180500D01*
X182454815Y-135247539D01*
X182402011Y-135293294D01*
X182350500Y-135304500D01*
X150149500Y-135304500D01*
X150082461Y-135284815D01*
X150036706Y-135232011D01*
X150025500Y-135180500D01*
X150025500Y-123774748D01*
X150524500Y-123774748D01*
X150536133Y-123833231D01*
X150580448Y-123899552D01*
X150646769Y-123943867D01*
X150658745Y-123946249D01*
X150658747Y-123946250D01*
X150677326Y-123949945D01*
X150705252Y-123955500D01*
X156244748Y-123955500D01*
X156272674Y-123949945D01*
X156291253Y-123946250D01*
X156291255Y-123946249D01*
X156303231Y-123943867D01*
X156369552Y-123899552D01*
X156413867Y-123833231D01*
X156425500Y-123774748D01*
X176124500Y-123774748D01*
X176136133Y-123833231D01*
X176180448Y-123899552D01*
X176246769Y-123943867D01*
X176258745Y-123946249D01*
X176258747Y-123946250D01*
X176277326Y-123949945D01*
X176305252Y-123955500D01*
X181844748Y-123955500D01*
X181872674Y-123949945D01*
X181891253Y-123946250D01*
X181891255Y-123946249D01*
X181903231Y-123943867D01*
X181969552Y-123899552D01*
X182013867Y-123833231D01*
X182025500Y-123774748D01*
X182025500Y-118235252D01*
X182013867Y-118176769D01*
X181969552Y-118110448D01*
X181903231Y-118066133D01*
X181891255Y-118063751D01*
X181891253Y-118063750D01*
X181872674Y-118060055D01*
X181844748Y-118054500D01*
X179524500Y-118054500D01*
X179457461Y-118034815D01*
X179411706Y-117982011D01*
X179400500Y-117930500D01*
X179400500Y-116029000D01*
X179420185Y-115961961D01*
X179426124Y-115953514D01*
X179494589Y-115864288D01*
X179499536Y-115857841D01*
X179502646Y-115850333D01*
X179556934Y-115719271D01*
X179556935Y-115719269D01*
X179560044Y-115711762D01*
X179580682Y-115555000D01*
X179560044Y-115398238D01*
X179524225Y-115311762D01*
X179502646Y-115259667D01*
X179499536Y-115252159D01*
X179431167Y-115163059D01*
X179408229Y-115133165D01*
X179403282Y-115126718D01*
X179277841Y-115030464D01*
X179200041Y-114998238D01*
X179139271Y-114973066D01*
X179139269Y-114973065D01*
X179131762Y-114969956D01*
X178975000Y-114949318D01*
X178818238Y-114969956D01*
X178810731Y-114973065D01*
X178810729Y-114973066D01*
X178749959Y-114998238D01*
X178672159Y-115030464D01*
X178546718Y-115126718D01*
X178541771Y-115133165D01*
X178518833Y-115163059D01*
X178450464Y-115252159D01*
X178447354Y-115259667D01*
X178425776Y-115311762D01*
X178389956Y-115398238D01*
X178369318Y-115555000D01*
X178389956Y-115711762D01*
X178393065Y-115719269D01*
X178393066Y-115719271D01*
X178447354Y-115850333D01*
X178450464Y-115857841D01*
X178546718Y-115983282D01*
X178672159Y-116079536D01*
X178679667Y-116082646D01*
X178686706Y-116086710D01*
X178685037Y-116089600D01*
X178727365Y-116123719D01*
X178749500Y-116194426D01*
X178749500Y-117930500D01*
X178729815Y-117997539D01*
X178677011Y-118043294D01*
X178625500Y-118054500D01*
X176305252Y-118054500D01*
X176277326Y-118060055D01*
X176258747Y-118063750D01*
X176258745Y-118063751D01*
X176246769Y-118066133D01*
X176180448Y-118110448D01*
X176136133Y-118176769D01*
X176124500Y-118235252D01*
X176124500Y-123774748D01*
X156425500Y-123774748D01*
X156425500Y-123049726D01*
X163767001Y-123049726D01*
X163767364Y-123056431D01*
X163772908Y-123107477D01*
X163776478Y-123122488D01*
X163821727Y-123243190D01*
X163830126Y-123258532D01*
X163906798Y-123360835D01*
X163919165Y-123373202D01*
X164021468Y-123449874D01*
X164036810Y-123458273D01*
X164157515Y-123503524D01*
X164172518Y-123507091D01*
X164223573Y-123512637D01*
X164230271Y-123513000D01*
X166003170Y-123513000D01*
X166018169Y-123508596D01*
X166019356Y-123507226D01*
X166021000Y-123499668D01*
X166021000Y-123495169D01*
X166529000Y-123495169D01*
X166533404Y-123510168D01*
X166534774Y-123511355D01*
X166542332Y-123512999D01*
X168319726Y-123512999D01*
X168326431Y-123512636D01*
X168377477Y-123507092D01*
X168392488Y-123503522D01*
X168513190Y-123458273D01*
X168528532Y-123449874D01*
X168630835Y-123373202D01*
X168643202Y-123360835D01*
X168719874Y-123258532D01*
X168728273Y-123243190D01*
X168773524Y-123122485D01*
X168777091Y-123107482D01*
X168782637Y-123056427D01*
X168783000Y-123049729D01*
X168783000Y-121276830D01*
X168778596Y-121261831D01*
X168777226Y-121260644D01*
X168769668Y-121259000D01*
X166546830Y-121259000D01*
X166531831Y-121263404D01*
X166530644Y-121264774D01*
X166529000Y-121272332D01*
X166529000Y-123495169D01*
X166021000Y-123495169D01*
X166021000Y-121276830D01*
X166016596Y-121261831D01*
X166015226Y-121260644D01*
X166007668Y-121259000D01*
X163784831Y-121259000D01*
X163769832Y-121263404D01*
X163768645Y-121264774D01*
X163767001Y-121272332D01*
X163767001Y-123049726D01*
X156425500Y-123049726D01*
X156425500Y-120733170D01*
X163767000Y-120733170D01*
X163771404Y-120748169D01*
X163772774Y-120749356D01*
X163780332Y-120751000D01*
X166003170Y-120751000D01*
X166018169Y-120746596D01*
X166019356Y-120745226D01*
X166021000Y-120737668D01*
X166021000Y-120733170D01*
X166529000Y-120733170D01*
X166533404Y-120748169D01*
X166534774Y-120749356D01*
X166542332Y-120751000D01*
X168765169Y-120751000D01*
X168780168Y-120746596D01*
X168781355Y-120745226D01*
X168782999Y-120737668D01*
X168782999Y-118960274D01*
X168782636Y-118953569D01*
X168777092Y-118902523D01*
X168773522Y-118887512D01*
X168728273Y-118766810D01*
X168719874Y-118751468D01*
X168643202Y-118649165D01*
X168630835Y-118636798D01*
X168528532Y-118560126D01*
X168513190Y-118551727D01*
X168392485Y-118506476D01*
X168377482Y-118502909D01*
X168326427Y-118497363D01*
X168319729Y-118497000D01*
X166546830Y-118497000D01*
X166531831Y-118501404D01*
X166530644Y-118502774D01*
X166529000Y-118510332D01*
X166529000Y-120733170D01*
X166021000Y-120733170D01*
X166021000Y-118514831D01*
X166016596Y-118499832D01*
X166015226Y-118498645D01*
X166007668Y-118497001D01*
X164230274Y-118497001D01*
X164223569Y-118497364D01*
X164172523Y-118502908D01*
X164157512Y-118506478D01*
X164036810Y-118551727D01*
X164021468Y-118560126D01*
X163919165Y-118636798D01*
X163906798Y-118649165D01*
X163830126Y-118751468D01*
X163821727Y-118766810D01*
X163776476Y-118887515D01*
X163772909Y-118902518D01*
X163767363Y-118953573D01*
X163767000Y-118960271D01*
X163767000Y-120733170D01*
X156425500Y-120733170D01*
X156425500Y-118235252D01*
X156413867Y-118176769D01*
X156369552Y-118110448D01*
X156303231Y-118066133D01*
X156291255Y-118063751D01*
X156291253Y-118063750D01*
X156272674Y-118060055D01*
X156244748Y-118054500D01*
X153924500Y-118054500D01*
X153857461Y-118034815D01*
X153811706Y-117982011D01*
X153800500Y-117930500D01*
X153800500Y-115761665D01*
X153820185Y-115694626D01*
X153849013Y-115663290D01*
X153953282Y-115583282D01*
X153974984Y-115555000D01*
X154044589Y-115464288D01*
X154049536Y-115457841D01*
X154070886Y-115406297D01*
X154106934Y-115319271D01*
X154106935Y-115319269D01*
X154110044Y-115311762D01*
X154130682Y-115155000D01*
X154110044Y-114998238D01*
X154099618Y-114973066D01*
X154052646Y-114859667D01*
X154049536Y-114852159D01*
X153953282Y-114726718D01*
X153827841Y-114630464D01*
X153820333Y-114627354D01*
X153689271Y-114573066D01*
X153689269Y-114573065D01*
X153681762Y-114569956D01*
X153525000Y-114549318D01*
X153368238Y-114569956D01*
X153360731Y-114573065D01*
X153360729Y-114573066D01*
X153229667Y-114627354D01*
X153222159Y-114630464D01*
X153096718Y-114726718D01*
X153000464Y-114852159D01*
X152997354Y-114859667D01*
X152950383Y-114973066D01*
X152939956Y-114998238D01*
X152919318Y-115155000D01*
X152939956Y-115311762D01*
X152943065Y-115319269D01*
X152943066Y-115319271D01*
X152979114Y-115406297D01*
X153000464Y-115457841D01*
X153005411Y-115464288D01*
X153075017Y-115555000D01*
X153096718Y-115583282D01*
X153103165Y-115588229D01*
X153108913Y-115593977D01*
X153107463Y-115595427D01*
X153142189Y-115642986D01*
X153149500Y-115684933D01*
X153149500Y-117930500D01*
X153129815Y-117997539D01*
X153077011Y-118043294D01*
X153025500Y-118054500D01*
X150705252Y-118054500D01*
X150677326Y-118060055D01*
X150658747Y-118063750D01*
X150658745Y-118063751D01*
X150646769Y-118066133D01*
X150580448Y-118110448D01*
X150536133Y-118176769D01*
X150524500Y-118235252D01*
X150524500Y-123774748D01*
X150025500Y-123774748D01*
X150025500Y-106979500D01*
X150045185Y-106912461D01*
X150097989Y-106866706D01*
X150149500Y-106855500D01*
X182350500Y-106855500D01*
X182417539Y-106875185D01*
G37*
%TD.AperFunction*%
%TD*%
M02*
